<svg width="2400" height="1200" viewBox="0 0 2400 1200" fill="none" xmlns="http://www.w3.org/2000/svg">
<path d="M2399.2 494.501C2399.2 655.201 2322.6 798.001 2203.8 888.301C2164.5 920.901 2132.3 1023.8 2057.7 1010.3C2032.7 1005.8 1995.4 987.701 1979.2 994.401C1964.7 1000.3 1894.4 1032.6 1894.4 1126C1894.4 1162.6 1867.8 1193 1832.9 1198.9C1828.8 1199.6 1824.7 1200 1820.4 1200C1779.5 1200 1746.4 1166.9 1746.4 1126C1746.4 985.201 1676.4 991.501 1624.4 989.001H1077.6C1058.9 989.401 1043.1 998.501 1043.1 1017C1043.1 1044.6 1020.7 1067 993.1 1067C992 1067 990.9 1067 989.8 1066.9C963.7 1065.2 943.1 1043.5 943.1 1017C943.1 998.501 925.3 991.301 906 988.101C849.8 980.201 828.4 922.801 819.3 889.001C809.5 852.701 799.2 817.401 799.2 494.501C799.2 171.601 809.5 136.301 819.3 100.001C829.1 63.7006 853.1 0.000610352 919.3 0.000610352H1904.7C2177.8 0.000610352 2399.2 221.401 2399.2 494.501Z" fill="black"/>
<path d="M790 389.501V599.501H125C67.1 599.501 20 552.401 20 494.501C20 436.601 67.1 389.501 125 389.501H790ZM810 369.501H125C56 369.501 0 425.501 0 494.501C0 563.501 56 619.501 125 619.501H810V369.501Z" fill="black"/>
<path d="M809.2 369.501H757.8C757.4 405.501 757.2 446.901 757.2 494.501C757.2 542.101 757.4 583.501 757.8 619.501H809.2V369.501Z" fill="black"/>
<path d="M806.6 586.901L809 575.101C779.5 569.201 728.7 562.601 674.7 562.101C631 561.601 570.6 565.201 530.8 584.701C505.6 597.101 470.3 609.101 435.6 619.401H475.6C497.9 611.901 519.1 603.801 536 595.401C604.8 561.801 748 575.201 806.6 586.901Z" fill="black"/>
<path d="M104.2 608.101C167.3 614.901 304.4 619.201 371.2 586.501C373.9 585.201 376.6 583.901 379.3 582.501C443.5 550.801 523 511.601 810.1 500.601V488.601C520.1 499.701 439.3 539.501 374 571.701C371.3 573.001 368.6 574.401 365.9 575.701C337.6 589.501 291.3 598.001 232 600.201C183.3 602.001 134.7 599.301 105.5 596.101C89.2001 594.301 72.4001 595.901 56.6001 599.001C62.0001 602.601 67.8001 605.701 73.8001 608.401C83.9001 607.301 94.2001 607.001 104.2 608.101Z" fill="black"/>
<path d="M185.9 574.001C194.5 575.301 204.5 575.901 215.2 575.901C224.9 575.901 235.3 575.401 245.9 574.401C278.6 571.201 333.4 560.401 331.4 539.801C330.6 531.001 320.6 525.401 300.9 522.501C284.6 520.101 263.3 520.001 240.9 522.201C208.2 525.401 153.4 536.201 155.4 556.801C156.2 565.501 166.2 571.201 185.9 574.001ZM188.4 544.401C202.8 539.601 221.9 536.001 242 534.001C262.2 532.101 281.6 532.001 296.6 533.901C312.6 535.901 318.3 539.501 319.3 540.801C318.5 542.301 313.6 546.901 298.3 551.901C283.9 556.601 264.8 560.301 244.7 562.301C224.5 564.201 205.1 564.301 190.1 562.401C174.1 560.401 168.4 556.801 167.4 555.501C168.2 554.001 173.1 549.501 188.4 544.401Z" fill="black"/>
<path d="M487.9 479.101C584.2 471.601 683.8 463.901 763.8 453.901C780.7 451.801 796.1 449.701 810.1 447.501V435.301C795.8 437.501 779.9 439.701 762.3 441.901C682.6 451.801 583.2 459.501 487 467.001C398.6 473.901 315.2 480.401 255.5 487.901C157.2 500.501 80.0001 526.101 32.5001 545.501C26.2001 548.101 20.2001 550.601 14.6001 553.101C16.5001 556.701 18.6001 560.201 20.8001 563.601C72.0001 541.201 153 513.101 256.9 500.001C316.3 492.401 399.6 485.901 487.9 479.101Z" fill="black"/>
<path d="M195.3 431.001C254.4 425.001 327.8 423.301 405.5 421.601C547.3 418.401 706.8 414.801 810 382.301V369.701C708.8 402.801 548 406.401 405.2 409.601C327.2 411.401 253.6 413.001 194.1 419.101C101.6 428.501 38.8 457.901 2.3 481.001C1.7 481.401 1.2 481.701 0.6 482.101C0.2 486.201 0 490.401 0 494.601C0 495.401 0 496.101 0 496.901C3 494.901 6 492.901 9.3 490.801C44.6 468.501 105.5 440.201 195.3 431.001Z" fill="black"/>
<path d="M279.3 369.501H208.4C140.5 382.001 87.7 394.401 48.9 404.701C43.8 406.101 38.7999 407.401 34.0999 408.701C29.3999 413.701 25.1 419.101 21.2 424.801C30.9 422.001 41.3 419.101 52.7 416.101C103.4 402.601 178.1 385.701 279.3 369.501Z" fill="black"/>
</svg>
