<svg width="24" height="24" viewBox="0 0 24 24" fill="none" xmlns="http://www.w3.org/2000/svg">
<path d="M12 2C6.48 2 2 6.48 2 12C2 17.52 6.48 22 12 22C17.52 22 22 17.52 22 12C22 6.48 17.52 2 12 2Z" fill="#BF4830"/>
<path fill-rule="evenodd" clip-rule="evenodd" d="M12 3C7.03228 3 3 7.03228 3 12C3 16.9677 7.03228 21 12 21C16.9677 21 21 16.9677 21 12C21 7.03228 16.9677 3 12 3ZM2 12C2 6.48 6.48 2 12 2C17.52 2 22 6.48 22 12C22 17.52 17.52 22 12 22C6.48 22 2 17.52 2 12Z" fill="#151515"/>
<path d="M13 7H11V9H13V7Z" fill="#E1A080"/>
<path d="M13 11H11V17H13V11Z" fill="#E1A080"/>
</svg>
